<svg xmlns="http://www.w3.org/2000/svg" viewBox="0 0 516 516">
              <path
                d="M451.56,364.7c-11.78-11.42-27.42-17.72-44.03-17.72s-32.4,6.34-44.2,17.86c-8.93,8.72-20.16,13.53-31.62,13.53-27.42,0-49.74-26.25-49.74-58.52V76.57c0-33.46-27.98-60.7-62.39-60.7s-62.39,27.23-62.39,60.7v65.93h-49.45c-34.41,0-62.39,27.23-62.39,60.7s27.98,60.7,62.39,60.7h49.45v55.97c0,99.2,78.29,179.89,174.52,179.89,44.86,0,87.49-17.49,120.01-49.23,11.76-11.48,18.22-26.73,18.2-42.94-.02-16.21-6.55-31.44-18.34-42.88h-.02ZM107.75,247.32c-25.01,0-45.37-19.81-45.37-44.13s20.35-44.13,45.37-44.13h66.45V76.57c0-24.35,20.33-44.15,45.36-44.15s45.39,19.81,45.39,44.15v126.62h.02c0,24.33-20.37,44.13-45.39,44.13H107.75Zm345.17,160.28c0,11.8-4.68,22.88-13.24,31.23-29.3,28.61-67.64,44.36-107.95,44.36-86.84,0-157.51-73.27-157.51-163.35v-12.28c0-24.35,20.35-44.13,45.36-44.13s45.39,19.81,45.39,44.13v12.28c0,41.39,29.95,75.07,66.76,75.07,16,0,31.52-6.52,43.67-18.38,8.55-8.35,19.93-12.97,32.06-12.99h.08c12.09,0,23.45,4.56,32.02,12.86,8.6,8.32,13.32,19.39,13.34,31.18v.02Z"
                fill="#f2f2f2"
                fillRule="evenodd"
              />
              <path
                d="M0,0V516H516V0H0ZM407.09,116.87c39.63,0,71.89,31.21,71.89,69.54s-32.25,69.57-71.89,69.57-71.89-31.21-71.89-69.57,32.25-69.54,71.89-69.54Zm51.05,339.88c-34.24,33.42-79.14,51.83-126.43,51.83-101.23,0-183.6-84.67-183.6-188.72v-47.14h-40.37c-39.4,0-71.47-31.18-71.47-69.52s32.06-69.52,71.47-69.52h40.37v-57.1c0-38.34,32.06-69.52,71.47-69.52s71.47,31.18,71.47,69.52v243.29c0,27.4,18.24,49.67,40.66,49.67,9.02,0,17.97-3.87,25.18-10.92,13.51-13.18,31.48-20.46,50.62-20.46s36.96,7.2,50.45,20.29c13.51,13.11,20.98,30.56,21.02,49.11h.02c.02,18.57-7.36,36.04-20.85,49.19Z"
                fill="#f2f2f2"
                fillRule="evenodd"
              />
            </svg>